{"title":"Gnomeo &amp; Juliet 2011 TS XviD SAFCuk009 {DragonTrG}","uid":6188758,"size":1162046440,"categoryP":"video","categoryS":"movies","magnet":"?xt=urn:btih:32d4dbdd69f3a217e38d541e6501624fbc654488&amp;dn=Gnomeo+%26+Juliet+2011+TS+XviD+SAFCuk009+%7BDragonTrG%7D&amp;tr=udp%3A%2F%2Ftracker.openbittorrent.com%3A80&amp;tr=udp%3A%2F%2Fopen.demonii.com%3A1337&amp;tr=udp%3A%2F%2Ftracker.coppersurfer.tk%3A6969&amp;tr=udp%3A%2F%2Fexodus.desync.com%3A6969","seeders":1,"leechers":0,"uploader":"SAFCukO09","files":3,"time":1298210396,"description":"Format : AVI\nFormat/Info : Audio Video Interleave\nFile size : 1.08 GiB\nDuration : 1h 14mn\nOverall bit rate : 2 082 Kbps\nWriting application : Nandub v1.0rc1\nWriting library : VirtualDub build 32839/release\n\nVideo\nID : 0\nFormat : MPEG-4 Visual\nFormat profile : Advanced Simple@L5\nFormat settings, BVOP : Yes\nFormat settings, QPel : No\nFormat settings, GMC : No warppoints\nFormat settings, Matrix : Custom\nCodec ID : XVID\nCodec ID/Hint : XviD\nDuration : 1h 14mn\nBit rate : 1 945 Kbps\nWidth : 688 pixels\nHeight : 384 pixels\nDisplay aspect ratio : 16:9\nFrame rate : 25.000 fps\nColor space : YUV\nChroma subsampling : 4:2:0\nBit depth : 8 bits\nScan type : Progressive\nBits/(Pixel*Frame) : 0.294\nStream size : 1.01 GiB (93%)\nWriting library : XviD 1.2.1 (UTC 2008-12-04)\n\nAudio\nID : 1\nFormat : MPEG Audio\nFormat version : Version 1\nFormat profile : Layer 3\nMode : Joint stereo\nMode extension : MS Stereo\nCodec ID : 55\nCodec ID/Hint : MP3\nDuration : 1h 14mn\nBit rate mode : Constant\nBit rate : 128 Kbps\nChannel(s) : 2 channels\nSampling rate : 44.1 KHz\nStream size : 68.1 MiB (6%)\nAlignment : Split accross interleaves\nInterleave, duration : 40 ms (1.00 video frame)\nInterleave, preload duration : 500 ms\n\n\n\n &lt;a href=&quot;\nhttp://www.imdb.com/title/tt0377981/&quot; rel=&quot;nofollow&quot; target=&quot;_NEW&quot;&gt;\nhttp://www.imdb.com/title/tt0377981/&lt;/a&gt;\n\n\n\n\n89524873606771859129.png\n\n\nGarden gnomes Gnomeo (voice of McAvoy) and Juliet (voice of Blunt) have as many obstacles to overcome as their quasi namesakes when they are caught up in a feud between neighbors. But with plastic pink flamingos and lawnmower races in the mix, can this young couple find lasting happiness?\n\nUsers: 5.5/10 (991 votes) 17 reviews | Critics: 69 reviews Metascore: 53/100 (based on 28 reviews from Metacritic.com)\n\nDirector:\nKelly Asbury\nWriters:\nWilliam Shakespeare (based on the original play by), Kelly Asbury (screenplay), and 8 more credits Ã‚Â»\nStars:\nJames McAvoy, Emily Blunt and Maggie Smith\n\n\n\nVIDEO: CiNEDUB...Thanks\n\nAUDIO: Imagine and friend ....Thanks guys\n\nRan a few filters dropped the brightness/contrast ,dropped the saturation levels .slight smoother filter and a few other things .\n\nEnjoy this one for the kids and big kids\n\nGreetz to Imagine ,Flawl3ss ,Santi ,Vision ,Kingdom,BDK,DiGiTALiNK,LEGION,Classified,iLLUSiON ,THC,WBZ,Rx,iLLUSiON\n","torrent":{"xt":"urn:btih:32d4dbdd69f3a217e38d541e6501624fbc654488","amp;dn":"Gnomeo+%26+Juliet+2011+TS+XviD+SAFCuk009+%7BDragonTrG%7D","amp;tr":["udp%3A%2F%2Ftracker.openbittorrent.com%3A80","udp%3A%2F%2Fopen.demonii.com%3A1337","udp%3A%2F%2Ftracker.coppersurfer.tk%3A6969","udp%3A%2F%2Fexodus.desync.com%3A6969"],"infoHash":"32d4dbdd69f3a217e38d541e6501624fbc654488","infoHashBuffer":{"type":"Buffer","data":[50,212,219,221,105,243,162,23,227,141,84,30,101,1,98,79,188,101,68,136]},"announce":[],"urlList":[]}}